<?xml version="1.0" standalone="no"?>
<!DOCTYPE svg PUBLIC "-//W3C//DTD SVG 20010904//EN"
 "http://www.w3.org/TR/2001/REC-SVG-20010904/DTD/svg10.dtd">
<svg version="1.0" xmlns="http://www.w3.org/2000/svg"
 width="512.000000pt" height="512.000000pt" viewBox="0 0 512.000000 512.000000"
 preserveAspectRatio="xMidYMid meet">

<g transform="translate(0.000000,512.000000) scale(0.100000,-0.100000)"
fill="#000000" stroke="none">
<path d="M2375 4954 c-503 -54 -895 -206 -1280 -497 -110 -83 -301 -271 -398
-392 -708 -877 -708 -2133 0 -3010 381 -471 919 -777 1533 -872 160 -24 510
-24 670 0 540 83 1012 324 1380 703 304 313 498 657 605 1069 63 242 70 302
70 605 0 303 -7 363 -70 605 -39 150 -71 243 -128 370 -228 511 -633 930
-1132 1175 -237 116 -471 190 -715 225 -110 16 -449 28 -535 19z m259 -534
c83 -41 81 -30 81 -420 0 -329 -1 -346 -20 -372 -24 -33 -91 -68 -130 -68 -46
0 -112 38 -137 78 -23 37 -23 41 -23 362 0 324 0 325 23 363 45 71 130 95 206
57z m-1219 -499 c49 -23 459 -433 474 -474 36 -96 -12 -191 -110 -217 -81 -22
-99 -10 -335 228 -119 119 -225 231 -235 247 -23 36 -25 105 -5 143 43 82 128
112 211 73z m2434 -6 c41 -21 79 -70 87 -111 15 -79 -2 -103 -234 -336 -119
-120 -230 -224 -248 -233 -94 -44 -197 5 -224 106 -22 80 -8 100 213 325 111
113 222 218 246 235 50 33 113 39 160 14z m-1056 -509 c316 -93 555 -349 622
-666 19 -92 19 -268 0 -360 -67 -316 -303 -569 -622 -667 -79 -24 -104 -26
-238 -26 -134 0 -159 2 -238 26 -165 51 -285 125 -404 250 -315 332 -315 862
0 1194 141 148 305 237 504 273 90 17 279 4 376 -24z m-1301 -711 c33 -24 68
-91 68 -130 0 -46 -38 -112 -78 -137 -37 -23 -41 -23 -362 -23 l-325 0 -39 24
c-41 26 -75 86 -76 134 0 57 44 126 95 148 11 4 171 7 355 6 317 -2 336 -3
362 -22z m2872 -4 c42 -26 75 -86 76 -135 0 -40 -34 -107 -68 -131 -26 -19
-43 -20 -372 -20 -329 0 -346 1 -372 20 -33 24 -68 91 -68 130 0 40 36 110 68
131 46 30 79 33 392 31 303 -2 305 -2 344 -26z m-2554 -806 c64 -33 99 -115
80 -185 -9 -33 -48 -78 -213 -246 -111 -113 -222 -218 -246 -235 -127 -84
-284 29 -241 174 10 34 51 81 228 259 119 120 229 224 246 232 40 20 109 20
146 1z m1613 4 c30 -8 83 -54 243 -212 113 -111 218 -222 235 -246 84 -127
-29 -284 -174 -241 -34 10 -81 51 -259 228 -120 119 -224 230 -233 248 -8 18
-15 51 -15 74 0 70 37 121 107 146 47 16 49 16 96 3z m-797 -350 c26 -12 53
-36 66 -57 23 -37 23 -41 23 -362 l0 -325 -24 -39 c-26 -42 -86 -75 -135 -76
-40 0 -107 34 -131 68 -19 26 -20 43 -20 372 0 390 -2 378 80 420 51 25 88 25
141 -1z"/>
<path d="M2412 3100 c-103 -27 -166 -64 -248 -145 -113 -111 -166 -238 -167
-394 -1 -255 171 -478 417 -541 44 -11 94 -20 113 -20 l33 0 0 560 0 560 -37
-1 c-21 0 -71 -9 -111 -19z"/>
</g>
</svg>
