<?xml version="1.0" standalone="no"?>
<!DOCTYPE svg PUBLIC "-//W3C//DTD SVG 20010904//EN"
 "http://www.w3.org/TR/2001/REC-SVG-20010904/DTD/svg10.dtd">
<svg version="1.0" xmlns="http://www.w3.org/2000/svg"
 width="512.000000pt" height="512.000000pt" viewBox="0 0 512.000000 512.000000"
 preserveAspectRatio="xMidYMid meet">

<g transform="translate(0.000000,512.000000) scale(0.100000,-0.100000)"
fill="#000000" stroke="none">
<path d="M2375 4954 c-503 -54 -895 -206 -1280 -497 -110 -83 -301 -271 -398
-392 -708 -877 -708 -2133 0 -3010 381 -471 919 -777 1533 -872 160 -24 510
-24 670 0 540 83 1012 324 1380 703 304 313 498 657 605 1069 63 242 70 302
70 605 0 303 -7 363 -70 605 -39 150 -71 243 -128 370 -228 511 -633 930
-1132 1175 -237 116 -471 190 -715 225 -110 16 -449 28 -535 19z m435 -330
c936 -109 1683 -843 1814 -1782 21 -147 21 -417 0 -564 -175 -1258 -1421
-2067 -2639 -1714 -703 203 -1251 769 -1435 1480 -84 329 -84 703 0 1032 183
710 733 1277 1432 1479 278 81 541 103 828 69z"/>
<path d="M2493 4419 c-24 -12 -52 -37 -65 -57 -23 -37 -23 -41 -23 -362 l0
-325 24 -39 c26 -42 86 -75 135 -76 40 0 107 34 131 68 19 26 20 43 20 372 0
390 2 379 -81 420 -51 26 -88 25 -141 -1z"/>
<path d="M1290 3929 c-32 -13 -68 -47 -86 -81 -18 -34 -18 -105 0 -137 7 -13
113 -124 236 -247 243 -244 260 -256 339 -234 98 26 146 121 110 217 -15 41
-425 451 -474 474 -44 20 -87 23 -125 8z"/>
<path d="M3711 3916 c-13 -7 -124 -113 -247 -236 -244 -242 -256 -259 -234
-339 27 -101 130 -150 224 -106 18 9 129 113 248 233 232 233 249 257 234 336
-8 41 -46 90 -87 111 -35 18 -106 19 -138 1z"/>
<path d="M2417 3430 c-199 -36 -363 -125 -503 -273 -177 -185 -258 -424 -233
-683 33 -356 282 -653 636 -761 79 -24 104 -26 238 -26 134 0 159 2 238 26
319 98 555 351 622 667 19 92 19 268 0 360 -67 317 -306 573 -622 666 -97 28
-286 41 -376 24z m143 -870 l0 -560 -32 0 c-55 0 -158 29 -227 62 -86 42 -197
151 -239 234 -88 175 -88 353 0 528 37 74 151 190 225 229 59 32 180 66 236
66 l37 1 0 -560z"/>
<path d="M760 2702 c-40 -22 -80 -90 -80 -136 1 -51 34 -111 76 -137 l39 -24
325 0 325 0 39 24 c42 26 75 86 76 135 0 40 -34 107 -68 131 -26 19 -45 20
-362 23 -312 2 -337 1 -370 -16z"/>
<path d="M3684 2711 c-70 -18 -124 -86 -124 -158 0 -38 35 -104 68 -128 26
-19 45 -20 362 -23 312 -2 337 -1 370 16 40 22 80 90 80 136 -1 51 -34 111
-76 137 -39 24 -41 24 -344 26 -168 1 -319 -2 -336 -6z"/>
<path d="M1664 1884 c-17 -8 -127 -112 -246 -232 -232 -233 -249 -257 -234
-336 8 -41 46 -90 87 -111 35 -18 106 -19 138 -1 13 7 125 114 248 236 243
243 255 260 233 339 -27 102 -133 151 -226 105z"/>
<path d="M3327 1886 c-70 -25 -107 -76 -107 -146 0 -23 7 -56 15 -74 9 -18
113 -129 233 -248 178 -177 225 -218 259 -228 141 -42 258 113 177 236 -14 21
-120 132 -236 246 -239 236 -253 245 -341 214z"/>
<path d="M2485 1540 c-82 -41 -80 -32 -83 -410 -2 -312 -1 -337 16 -370 22
-40 90 -80 136 -80 51 1 111 34 137 76 l24 39 0 325 0 325 -24 39 c-26 42 -86
75 -136 76 -16 0 -48 -9 -70 -20z"/>
</g>
</svg>
