<?xml version="1.0" encoding="UTF-8"?>
<svg version="1.1" xmlns="http://www.w3.org/2000/svg" width="512" height="512">
<path d="M0 0 C2.59729509 2.31710743 5.13711895 4.68292023 7.66015625 7.08105469 C10.16735285 9.47708274 10.16735285 9.47708274 12.84765625 11.55371094 C16.45412744 14.45677121 19.22241494 17.93649032 22.2109375 21.45605469 C23.02691406 22.37257813 23.84289062 23.28910156 24.68359375 24.23339844 C32.45702821 33.03968675 38.9758093 42.51331495 45.2109375 52.45605469 C45.62085938 53.10380859 46.03078125 53.7515625 46.453125 54.41894531 C64.76377236 83.75899267 74.3619405 119.72314416 74.7109375 154.14355469 C74.72946777 155.2838916 74.74799805 156.42422852 74.76708984 157.59912109 C74.71904747 163.85687525 74.43930825 167.72245582 70.2109375 172.45605469 C66.39163578 176.08439132 63.32814744 176.76605927 58.2109375 176.95605469 C53.09372756 176.76605927 50.03023922 176.08439132 46.2109375 172.45605469 C41.06805887 166.06220558 41.13020192 159.74064573 40.66748047 151.85351562 C38.46628515 116.31175662 27.23542225 82.71115026 5.2109375 54.45605469 C4.5303125 53.55371094 3.8496875 52.65136719 3.1484375 51.72167969 C-20.07263534 21.99166977 -52.52709026 1.31554927 -88.7890625 -8.54394531 C-89.50320313 -8.74358887 -90.21734375 -8.94323242 -90.953125 -9.14892578 C-135.00108371 -21.18694033 -182.81247547 -12.78734006 -222.23046875 9.32714844 C-228.39533253 12.92853961 -234.12028861 17.12841269 -239.7890625 21.45605469 C-241.15417969 22.48279297 -241.15417969 22.48279297 -242.546875 23.53027344 C-276.76936914 50.34640691 -300.97367979 91.16289851 -306.7890625 134.45605469 C-307.35495417 140.12010806 -307.77805441 145.79176963 -308.10668945 151.47436523 C-308.64945684 160.55230654 -309.13893137 167.80592355 -315.7890625 174.45605469 C-320.66206569 177.54935237 -326.2309241 177.0521017 -331.7890625 176.45605469 C-336.43789656 174.29766744 -339.80225181 171.22856848 -341.7890625 166.45605469 C-342.39407972 162.34531589 -342.35675126 158.29190898 -342.2890625 154.14355469 C-342.27625244 152.94947998 -342.26344238 151.75540527 -342.25024414 150.52514648 C-341.16855673 101.85563229 -320.62961568 56.5781042 -288.7890625 20.45605469 C-288.06847656 19.61300781 -287.34789062 18.76996094 -286.60546875 17.90136719 C-282.3281535 12.94868637 -277.79352636 8.65912229 -272.7890625 4.45605469 C-271.87769531 3.64523437 -270.96632813 2.83441406 -270.02734375 1.99902344 C-261.21760536 -5.78210928 -251.7382398 -12.3047801 -241.7890625 -18.54394531 C-241.14130859 -18.95386719 -240.49355469 -19.36378906 -239.82617188 -19.78613281 C-167.09379365 -65.17722959 -64.49038523 -55.65463922 0 0 Z " fill="#000000" transform="translate(389.7890625,295.5439453125)"/>
<path d="M0 0 C1.27922927 1.07340623 2.55013137 2.15681479 3.8125 3.25 C4.60527344 3.84683594 5.39804687 4.44367188 6.21484375 5.05859375 C15.93504199 13.25864069 22.35794315 24.51012742 26.8125 36.25 C27.245625 37.36117187 27.67875 38.47234375 28.125 39.6171875 C34.65578831 59.61772671 32.0564283 81.98347413 23 100.625 C18.77632191 108.8801468 13.62131356 115.91621995 6.8125 122.25 C5.82056641 123.24966797 5.82056641 123.24966797 4.80859375 124.26953125 C-12.07577368 140.59757686 -32.85098127 144.79710753 -55.640625 144.51953125 C-72.88811378 144.02191325 -89.24760164 136.54069563 -102.1875 125.25 C-103.15558594 124.47785156 -104.12367188 123.70570313 -105.12109375 122.91015625 C-114.72163081 114.89617411 -120.76593272 103.74003866 -125.1875 92.25 C-125.83912109 90.58130859 -125.83912109 90.58130859 -126.50390625 88.87890625 C-133.02177113 68.87110501 -130.43304734 46.52201668 -121.375 27.875 C-118.26497734 21.78995216 -114.68877268 16.40876195 -110.1875 11.25 C-109.02927734 9.79787109 -109.02927734 9.79787109 -107.84765625 8.31640625 C-99.83367411 -1.28413081 -88.67753866 -7.32843272 -77.1875 -11.75 C-76.07503906 -12.18441406 -74.96257812 -12.61882812 -73.81640625 -13.06640625 C-49.10163881 -21.1176415 -20.46360477 -15.78039174 0 0 Z M-85.59375 33.3125 C-95.01685034 44.76803375 -97.26085139 56.66688377 -96.39892578 71.11572266 C-95.20033896 83.2150829 -88.26862603 92.94104039 -79.75 101.171875 C-68.13182118 110.59393465 -54.61148884 112.54073726 -40.1875 111.25 C-28.01544479 108.87496484 -17.93783523 101.80680434 -10.1875 92.25 C-2.46119256 79.57093138 -0.03435958 66.28484463 -2.875 51.7265625 C-6.41973833 40.23570241 -13.83248016 29.73196522 -24.1875 23.421875 C-45.73559836 12.32460434 -68.69621999 15.45850603 -85.59375 33.3125 Z " fill="#000000" transform="translate(305.1875,79.75)"/>
</svg>
