<?xml version="1.0" standalone="no"?>
<!DOCTYPE svg PUBLIC "-//W3C//DTD SVG 20010904//EN"
 "http://www.w3.org/TR/2001/REC-SVG-20010904/DTD/svg10.dtd">
<svg version="1.0" xmlns="http://www.w3.org/2000/svg"
 width="512.000000pt" height="512.000000pt" viewBox="0 0 512.000000 512.000000"
 preserveAspectRatio="xMidYMid meet">

<g transform="translate(0.000000,512.000000) scale(0.100000,-0.100000)"
fill="#000000" stroke="none">
<path d="M386 5029 c-62 -15 -153 -68 -197 -116 -22 -24 -55 -74 -72 -111
l-32 -67 0 -2176 0 -2175 37 -76 c45 -91 103 -147 196 -191 l67 -32 2176 0
2175 0 76 37 c91 45 147 103 191 196 l32 67 0 2175 0 2175 -32 67 c-44 93
-100 151 -191 196 l-76 37 -2155 2 c-1279 0 -2172 -3 -2195 -8z m4328 -161
c55 -16 138 -99 154 -154 18 -60 18 -4248 0 -4308 -16 -55 -99 -138 -154 -154
-60 -18 -4248 -18 -4308 0 -55 16 -138 99 -154 154 -18 60 -18 4248 0 4308 15
51 99 137 148 153 53 17 4257 18 4314 1z"/>
<path d="M2013 4360 c-150 -32 -243 -159 -243 -335 0 -150 67 -265 183 -316
74 -32 192 -32 264 0 69 31 134 101 162 177 30 79 26 222 -8 300 -27 62 -91
126 -151 153 -54 23 -149 33 -207 21z m130 -124 c82 -30 119 -96 119 -212 0
-154 -97 -248 -221 -214 -86 23 -136 102 -136 215 0 108 43 182 122 210 48 18
68 18 116 1z"/>
<path d="M3609 4356 c-137 -37 -222 -141 -236 -290 -11 -118 23 -231 89 -297
56 -56 130 -83 223 -83 84 0 168 16 197 38 17 12 17 16 1 62 -9 27 -17 51 -19
53 -2 2 -20 -3 -41 -12 -180 -71 -313 11 -313 194 0 79 17 129 59 170 62 62
162 72 255 24 15 -8 30 -15 31 -15 5 0 35 92 35 105 0 16 -63 43 -129 55 -67
12 -94 12 -152 -4z"/>
<path d="M770 4354 c-14 -3 -35 -7 -47 -9 l-23 -5 0 -320 0 -320 65 0 65 0 0
110 0 110 38 0 c59 0 162 19 196 37 78 39 110 92 110 183 0 142 -87 210 -278
215 -56 2 -112 2 -126 -1z m193 -125 c70 -19 95 -69 66 -132 -15 -33 -50 -47
-131 -54 l-68 -6 0 102 0 101 48 0 c26 0 64 -5 85 -11z"/>
<path d="M1310 4354 c-14 -3 -35 -7 -47 -9 l-23 -5 0 -320 0 -320 65 0 64 0 3
116 3 117 44 1 c41 2 46 -1 83 -47 21 -28 57 -81 79 -118 l41 -69 69 0 c38 0
69 2 69 5 0 15 -58 118 -102 182 l-50 72 45 43 c111 107 73 280 -73 334 -44
16 -217 28 -270 18z m202 -124 c44 -13 68 -43 68 -86 0 -63 -53 -93 -162 -94
l-48 0 0 95 0 95 53 0 c28 0 69 -5 89 -10z"/>
<path d="M2670 4104 c0 -143 -4 -253 -10 -264 -23 -43 -111 -48 -178 -9 -18
10 -35 19 -37 19 -3 0 -16 -23 -31 -51 -29 -58 -29 -57 41 -89 58 -27 124 -34
191 -20 47 10 67 21 100 54 57 57 64 98 64 376 l0 230 -70 0 -70 0 0 -246z"/>
<path d="M2910 4025 l0 -325 225 0 226 0 -3 57 -3 57 -155 1 -155 0 -3 83 -3
82 131 0 130 0 0 60 0 60 -130 0 -130 0 0 65 0 65 145 0 145 0 0 60 0 60 -210
0 -210 0 0 -325z"/>
<path d="M3900 4290 l0 -60 100 0 100 0 0 -265 0 -265 65 0 65 0 0 265 0 265
95 0 95 0 0 60 0 60 -260 0 -260 0 0 -60z"/>
<path d="M661 3084 c-28 -35 -26 -67 3 -101 l24 -28 715 0 715 0 26 24 c32 30
34 69 5 105 l-20 26 -724 0 -724 0 -20 -26z"/>
<path d="M661 2354 c-28 -35 -26 -67 3 -101 l24 -28 902 0 902 0 24 28 c29 34
31 66 3 101 l-20 26 -909 0 -909 0 -20 -26z"/>
<path d="M661 1624 c-29 -36 -27 -75 5 -105 l26 -24 1286 -3 c708 -1 1302 0
1320 3 68 12 96 89 49 133 l-23 22 -1321 0 -1322 0 -20 -26z"/>
<path d="M661 894 c-29 -36 -27 -75 5 -105 l26 -24 1868 0 1868 0 26 24 c32
30 34 69 5 105 l-20 26 -1879 0 -1879 0 -20 -26z"/>
</g>
</svg>
